<?xml version="1.0" standalone="no"?>
<!DOCTYPE svg PUBLIC "-//W3C//DTD SVG 20010904//EN"
 "http://www.w3.org/TR/2001/REC-SVG-20010904/DTD/svg10.dtd">
<svg version="1.0" xmlns="http://www.w3.org/2000/svg"
 width="1280.000000pt" height="1280.000000pt" viewBox="0 0 1280.000000 1280.000000"
 preserveAspectRatio="xMidYMid meet">
<g transform="translate(0.000000,1280.000000) scale(0.100000,-0.100000)"
fill="#000000" stroke="none">
<path d="M7890 12489 c-341 -89 -683 -429 -940 -934 -257 -504 -436 -1169
-520 -1930 -45 -408 -54 -605 -53 -1155 0 -289 5 -585 9 -657 10 -144 9 -153
-11 -153 -16 0 -18 8 -51 230 -132 900 -367 1763 -664 2445 -470 1076 -1148
1764 -1745 1768 -118 1 -183 -13 -285 -61 -93 -43 -218 -164 -273 -262 -143
-259 -165 -650 -61 -1080 170 -694 620 -1459 1352 -2298 163 -186 684 -713
892 -902 74 -67 139 -128 143 -136 17 -30 -24 -27 -66 4 -808 597 -1530 1018
-2231 1301 -1057 427 -1981 474 -2472 125 -129 -91 -236 -247 -264 -381 -19
-91 -7 -262 24 -352 225 -645 1199 -1167 2551 -1365 515 -76 745 -90 1489 -91
439 -1 651 -5 653 -12 7 -21 -28 -31 -222 -63 -1450 -233 -2607 -659 -3355
-1236 -143 -110 -395 -360 -482 -477 -116 -156 -199 -320 -239 -473 -27 -102
-30 -272 -6 -361 73 -274 314 -454 674 -503 116 -16 403 -8 528 14 772 139
1626 617 2530 1415 266 236 665 630 860 849 40 45 55 51 75 27 11 -13 9 -21
-11 -48 -1068 -1444 -1648 -2856 -1579 -3844 37 -523 234 -869 555 -979 67
-23 97 -27 185 -27 128 0 199 17 335 82 161 77 292 182 437 351 423 491 718
1303 847 2325 57 449 73 780 69 1385 l-3 495 25 0 c24 0 25 -3 62 -220 216
-1274 566 -2285 1045 -3015 517 -788 1156 -1156 1622 -935 111 53 222 169 285
296 212 430 115 1108 -266 1856 -246 484 -596 981 -1056 1503 -170 192 -583
612 -799 812 -90 83 -163 157 -163 165 0 37 42 15 241 -128 1233 -883 2387
-1394 3343 -1480 173 -16 458 -7 606 20 329 58 567 189 699 386 72 107 96 194
95 335 -1 103 -4 126 -34 214 -89 262 -301 502 -642 726 -767 504 -2053 768
-3573 734 -559 -12 -570 -12 -570 6 0 16 2 17 340 70 1113 176 2124 498 2837
906 799 456 1260 1022 1236 1514 -16 316 -244 541 -625 617 -121 24 -406 24
-560 -1 -326 -51 -656 -163 -1033 -352 -781 -392 -1572 -1029 -2419 -1946 -90
-98 -167 -175 -172 -172 -18 11 -8 31 52 109 208 272 532 749 716 1056 525
877 829 1654 930 2379 26 190 24 576 -5 730 -53 287 -152 494 -304 635 -79 73
-195 135 -286 154 -82 17 -217 13 -302 -10z"/>
</g>
</svg>
